HIERARCHY
ROOT Hips
{
  OFFSET 3.00422 94.3247 59.8075
  CHANNELS 6 Xposition Yposition Zposition Zrotation Xrotation Yrotation
  JOINT RightUpLeg
  {
    OFFSET -8.9458 -8.66707 0.101652
    CHANNELS 3 Zrotation Xrotation Yrotation
    JOINT RightLeg
    {
      OFFSET 0 -44.4227 1.3727
      CHANNELS 3 Zrotation Xrotation Yrotation
      JOINT RightFoot
      {
        OFFSET 0.253549 -42.0924 -1.46059
        CHANNELS 3 Zrotation Xrotation Yrotation
        JOINT RightToes
        {
          OFFSET 0.04 -4.41509 8.4991
          CHANNELS 3 Zrotation Xrotation Yrotation
          End Site
          {
            OFFSET -0.08 -0.137448 9.77979
          }
        }
      }
    }
  }
  JOINT Spine
  {
    OFFSET 0 11.8905 0
    CHANNELS 3 Zrotation Xrotation Yrotation
    JOINT Spine1
    {
      OFFSET 0 25.6574 0.127663
      CHANNELS 3 Zrotation Xrotation Yrotation
      JOINT HEad
      {
        OFFSET 0 8.73416 0.011341
        CHANNELS 3 Zrotation Xrotation Yrotation
        End Site
        {
          OFFSET -0.29 12.7742 2.51395
        }
      }
      JOINT LeftShoulder1
      {
        OFFSET 8.99 -0.362252 -0.22
        CHANNELS 3 Zrotation Xrotation Yrotation
        JOINT LeftArm
        {
          OFFSET 10.2827 -0.00338 0.322123
          CHANNELS 3 Zrotation Xrotation Yrotation
          JOINT LeftForeArm
          {
            OFFSET 32.7669 0.099144 -1.42434
            CHANNELS 3 Zrotation Xrotation Yrotation
            JOINT LeftHand
            {
              OFFSET 27.5643 0.085362 1.02216
              CHANNELS 3 Zrotation Xrotation Yrotation
              End Site
              {
                OFFSET 16.7443 -0.6 1.50291
              }
            }
          }
        }
      }
      JOINT RightShoulder
      {
        OFFSET -8.99 -0.362252 -0.22
        CHANNELS 3 Zrotation Xrotation Yrotation
        JOINT RightArm
        {
          OFFSET -10.2827 -0.00338 0.322123
          CHANNELS 3 Zrotation Xrotation Yrotation
          JOINT RightForeArm
          {
            OFFSET -32.8971 0.099144 -1.42434
            CHANNELS 3 Zrotation Xrotation Yrotation
            JOINT RightHand
            {
              OFFSET -27.4921 0.085362 1.02216
              CHANNELS 3 Zrotation Xrotation Yrotation
              End Site
              {
                OFFSET -16.6312 -0.6 1.50291
              }
            }
          }
        }
      }
    }
  }
  JOINT LeftUpLeg
  {
    OFFSET 8.9458 -8.66707 0.101652
    CHANNELS 3 Zrotation Xrotation Yrotation
    JOINT LeftLeg
    {
      OFFSET 0 -44.4227 1.3727
      CHANNELS 3 Zrotation Xrotation Yrotation
      JOINT LeftFoot
      {
        OFFSET -0.253549 -42.0924 -1.46059
        CHANNELS 3 Zrotation Xrotation Yrotation
        JOINT LeftToes
        {
          OFFSET -0.04 -4.41509 8.4991
          CHANNELS 3 Zrotation Xrotation Yrotation
          End Site
          {
            OFFSET 0.08 -0.047448 9.77979
          }
        }
      }
    }
  }
}
MOTION
Frames:	7
Frame Time:	0.0166667
3.00422 94.3247 59.8075 1.77847 -0.789963 -91.1817 -20.3526 -26.0679 -2.02871 3.2911 27.2491 1.87677 9.40994 5.43611 -1.16122 -5.01029 -20.9619 2.29909 2.11915 9.32448 -1.70579 -0.629672 18.6443 -3.01861 13.1994 -22.2466 -13.8758 8.96575e-033 -6.4605e-016 7.95139e-016 -68.314 -7.36338 -24.9437 -15.4633 41.8282 -114.696 6.54677 9.62745 -1.04006 24.203 -2.71577 -12.7294 57.3899 -0.0809519 38.2833 -19.8402 19.9488 141.038 -15.408 10.9847 -12.8665 30.2888 -8.21712 -12.5446 -10.8759 21.0328 15.4939 -4.06427 13.1061 0.639128 14.4023 -22.7081 13.8116 
3.23202 95.2822 57.6623 1.96539 -1.19042 -89.93 -19.6606 -25.3289 -2.56904 3.26861 26.3804 1.04858 8.88986 4.32717 -1.02335 -4.12705 -17.6457 2.38392 2.1323 9.31671 -1.56261 -0.582381 18.6105 -2.76445 13.1339 -22.4416 -15.2167 3.97569e-016 -1.98785e-016 -3.97569e-016 -68.6644 -6.56549 -23.9309 -15.4645 41.8721 -114.576 6.54677 9.62745 -1.04006 23.9304 -2.72885 -12.8867 56.675 -1.08234 38.5126 -19.6323 20.2284 141.153 -14.7695 10.9541 -13.0064 29.4096 -9.17558 -10.9995 -12.9087 22.7584 17.5627 -2.65796 13.0136 0.383714 14.0837 -22.7811 12.7337 
3.42937 96.1389 55.7074 2.06119 -1.52714 -88.9303 -18.8634 -24.6271 -2.65355 3.25184 25.5678 0.122408 8.41063 2.79969 -0.871585 -3.03348 -13.3853 2.3795 2.20996 9.31139 -1.41845 -0.496689 18.5574 -2.48427 12.9119 -22.4514 -16.3528 6.93983e-033 -2.00027e-015 1.98785e-016 -69.2061 -5.51971 -22.8624 -15.4413 41.9206 -114.56 6.54677 9.62745 -1.04006 23.759 -2.79291 -13.2031 55.8738 -2.11006 38.659 -19.5203 20.4105 141.245 -14.0508 10.9334 -13.298 28.2284 -10.1761 -9.00677 -15.333 25.8359 19.6427 -1.4788 13.6088 0.175964 15.4905 -25.3455 12.5027 
3.59874 96.8449 53.9441 2.09199 -1.72219 -88.1434 -17.9497 -24.0651 -2.43986 3.23894 25.0027 -0.835741 8.08486 0.877049 -0.719304 -1.77555 -8.49094 2.33225 2.45011 9.30599 -1.30074 -0.333721 18.4738 -2.23555 12.6009 -22.3177 -17.2417 1.56491e-032 2.88675e-015 -3.10601e-016 -69.8916 -4.2697 -21.7608 -15.3848 41.9618 -114.682 6.54677 9.62745 -1.04006 23.7193 -2.91655 -13.698 55.0685 -3.10985 38.6496 -19.4901 20.5197 141.31 -13.3165 10.9195 -13.6964 26.8542 -11.0795 -6.96233 -18.0543 29.8407 21.8311 -0.685386 14.4872 0.029314 17.8798 -29.0906 13.0307 
3.7593 97.3828 52.3428 2.07069 -1.72281 -87.4912 -16.9233 -23.6727 -2.07702 3.25718 24.7588 -1.80897 8.00169 -1.35403 -0.57231 -0.420626 -3.31342 2.27139 2.89657 9.29989 -1.24463 -0.0802734 18.3589 -2.0788 12.286 -22.0951 -17.858 7.95139e-016 2.34814e-015 -0 -70.6407 -2.89169 -20.7231 -15.2872 41.978 -114.933 6.54677 9.62745 -1.04006 23.8112 -3.08914 -14.3238 54.3707 -4.08717 38.3786 -19.4991 20.6296 141.346 -12.6677 10.9099 -14.1147 25.3747 -11.7564 -5.20591 -21.0383 34.2045 24.0458 -0.438082 15.2855 -0.0200289 20.4798 -32.7269 14.0454 
3.93165 97.7627 50.8372 1.99945 -1.51708 -86.8934 -15.7933 -23.4329 -1.6869 3.34015 24.824 -2.79631 8.19616 -3.77326 -0.42583 0.953609 1.81394 2.20217 3.50346 9.29885 -1.28191 0.246306 18.2242 -2.07226 12.0597 -21.8315 -18.1727 -5.10358e-032 -3.67752e-015 -7.95139e-016 -71.3514 -1.51168 -19.9011 -15.1488 41.9566 -115.276 6.54677 9.62745 -1.04006 24.0036 -3.27761 -14.9583 53.9021 -5.10211 37.721 -19.4998 20.8279 141.36 -12.2121 10.9049 -14.4534 23.8393 -12.1123 -3.91595 -24.2002 38.3947 26.0141 -0.878367 15.8471 0.0686303 22.6708 -35.5333 15.0688 
4.13134 98.0206 49.356 1.87123 -1.13181 -86.2921 -14.578 -23.273 -1.35939 3.50429 25.0747 -3.78089 8.65596 -6.20912 -0.272712 2.26969 6.60225 2.1136 4.15971 9.3072 -1.43796 0.608424 18.0871 -2.26655 12.0092 -21.5517 -18.1445 7.95139e-016 9.51682e-015 -3.97569e-016 -71.9202 -0.306311 -19.463 -14.9831 41.9013 -115.648 6.54677 9.62745 -1.04006 24.248 -3.43307 -15.433 53.768 -6.25063 36.5664 -19.4617 21.1846 141.363 -12.0307 10.9063 -14.6307 22.2672 -12.0861 -3.11669 -27.3257 42.0163 27.3577 -2.06902 16.2301 0.316348 24.0875 -37.3589 15.6357 
